<svg xmlns:xlink="http://www.w3.org/1999/xlink" width="143.371" xmlns="http://www.w3.org/2000/svg" height="44.53" id="screenshot-5eb146a3-b029-800b-8003-02756eb0edbb" viewBox="-3115.979 441.235 143.371 44.53" style="-webkit-print-color-adjust: exact;" fill="none" version="1.1"><g id="shape-5eb146a3-b029-800b-8003-02756eb0edbb"><g class="fills" id="fills-5eb146a3-b029-800b-8003-02756eb0edbb"><path fill-rule="evenodd" clip-rule="evenodd" rx="0" ry="0" d="M-3021.059,445.898L-3021.059,444.024L-3021.059,442.455C-3021.059,442.077,-3021.088,441.801,-3021.146,441.627C-3021.175,441.453,-3021.233,441.351,-3021.320,441.322C-3021.378,441.264,-3021.465,441.235,-3021.581,441.235L-3032.409,441.235C-3032.641,441.235,-3032.829,441.249,-3032.974,441.278C-3033.119,441.307,-3033.264,441.409,-3033.409,441.583C-3033.554,441.758,-3033.641,441.889,-3033.670,441.976C-3033.699,442.063,-3033.714,442.252,-3033.714,442.542L-3033.714,470.915C-3033.714,471.147,-3033.699,471.321,-3033.670,471.438C-3033.612,471.525,-3033.496,471.597,-3033.322,471.656C-3033.148,471.714,-3032.873,471.743,-3032.496,471.743L-3030.887,471.743L-3028.843,471.743C-3028.350,471.743,-3027.988,471.714,-3027.756,471.656C-3027.495,471.597,-3027.335,471.525,-3027.278,471.438C-3027.220,471.321,-3027.191,471.147,-3027.191,470.915L-3027.191,460.847L-3027.191,460.106C-3027.191,459.903,-3027.089,459.728,-3026.887,459.583C-3026.800,459.525,-3026.654,459.496,-3026.451,459.496C-3026.248,459.467,-3026.031,459.452,-3025.799,459.452L-3023.842,459.452C-3023.698,459.452,-3023.596,459.438,-3023.538,459.409C-3023.451,459.351,-3023.408,459.220,-3023.408,459.017C-3023.378,458.813,-3023.364,458.523,-3023.364,458.145L-3023.364,456.489L-3023.364,454.789C-3023.364,454.353,-3023.378,454.034,-3023.408,453.830C-3023.437,453.627,-3023.495,453.511,-3023.581,453.482C-3023.639,453.423,-3023.726,453.394,-3023.842,453.394L-3025.973,453.394L-3026.495,453.394C-3026.640,453.394,-3026.785,453.336,-3026.930,453.220C-3027.104,453.075,-3027.191,452.900,-3027.191,452.697L-3027.191,452.087L-3027.191,448.382L-3027.191,447.859C-3027.162,447.801,-3027.089,447.700,-3026.974,447.554C-3026.915,447.467,-3026.785,447.409,-3026.582,447.380C-3026.350,447.351,-3026.147,447.336,-3025.973,447.336L-3021.624,447.336C-3021.480,447.336,-3021.378,447.322,-3021.320,447.293C-3021.233,447.235,-3021.175,447.104,-3021.146,446.901C-3021.088,446.668,-3021.059,446.334,-3021.059,445.898ZL-3021.059,445.898ZM-3006.238,470.392C-3006.209,469.956,-3006.195,469.346,-3006.195,468.561C-3006.195,467.864,-3006.209,467.326,-3006.238,466.949C-3006.238,466.542,-3006.252,466.251,-3006.281,466.077C-3006.310,465.874,-3006.368,465.757,-3006.455,465.728C-3006.542,465.670,-3006.643,465.641,-3006.760,465.641L-3010.890,465.641C-3011.123,465.641,-3011.369,465.627,-3011.630,465.598C-3011.891,465.568,-3012.079,465.525,-3012.195,465.467C-3012.311,465.409,-3012.384,465.220,-3012.412,464.900L-3012.412,463.941L-3012.412,460.324L-3012.412,459.583C-3012.412,459.380,-3012.311,459.205,-3012.108,459.060C-3012.021,459.002,-3011.877,458.973,-3011.673,458.973C-3011.470,458.944,-3011.253,458.929,-3011.021,458.929L-3009.064,458.929C-3008.919,458.929,-3008.818,458.915,-3008.760,458.886C-3008.673,458.828,-3008.629,458.697,-3008.629,458.494C-3008.601,458.290,-3008.586,458.000,-3008.586,457.622L-3008.586,455.966L-3008.586,454.266C-3008.586,453.830,-3008.601,453.511,-3008.629,453.307C-3008.658,453.104,-3008.716,452.988,-3008.804,452.959C-3008.861,452.900,-3008.948,452.871,-3009.064,452.871L-3011.195,452.871L-3011.717,452.871C-3011.862,452.871,-3012.007,452.813,-3012.152,452.697C-3012.325,452.552,-3012.412,452.377,-3012.412,452.174L-3012.412,451.564L-3012.412,448.382L-3012.412,447.859C-3012.384,447.801,-3012.311,447.700,-3012.195,447.554C-3012.137,447.467,-3012.007,447.409,-3011.804,447.380C-3011.572,447.351,-3011.369,447.336,-3011.195,447.336L-3006.846,447.336C-3006.702,447.336,-3006.600,447.322,-3006.542,447.293C-3006.455,447.235,-3006.397,447.104,-3006.368,446.901C-3006.310,446.668,-3006.281,446.334,-3006.281,445.898L-3006.281,444.024L-3006.281,442.455C-3006.281,442.077,-3006.310,441.801,-3006.368,441.627C-3006.397,441.453,-3006.455,441.351,-3006.542,441.322C-3006.600,441.264,-3006.687,441.235,-3006.803,441.235L-3017.630,441.235C-3017.863,441.235,-3018.051,441.249,-3018.196,441.278C-3018.341,441.307,-3018.486,441.409,-3018.631,441.583C-3018.776,441.758,-3018.863,441.889,-3018.892,441.976C-3018.921,442.063,-3018.935,442.252,-3018.935,442.542L-3018.935,470.087L-3018.935,470.915C-3018.935,471.205,-3018.848,471.423,-3018.674,471.568C-3018.530,471.714,-3018.297,471.772,-3017.979,471.743L-3016.935,471.743L-3006.716,471.743C-3006.600,471.743,-3006.513,471.728,-3006.455,471.699C-3006.368,471.641,-3006.310,471.525,-3006.281,471.350C-3006.252,471.147,-3006.238,470.827,-3006.238,470.392ZL-3006.238,470.392ZM-2989.128,464.595C-2989.128,466.861,-2989.824,468.619,-2991.215,469.869C-2992.607,471.118,-2994.448,471.743,-2996.738,471.743C-2997.810,471.743,-2998.810,471.583,-2999.738,471.263C-3000.665,470.915,-3001.478,470.435,-3002.173,469.825C-3002.840,469.215,-3003.376,468.474,-3003.782,467.602C-3004.159,466.702,-3004.348,465.699,-3004.348,464.595L-3004.348,462.155C-3004.348,462.009,-3004.174,461.922,-3003.825,461.893C-3003.449,461.864,-3002.652,461.849,-3001.434,461.849L-2998.738,461.849C-2998.129,461.849,-2997.825,461.922,-2997.825,462.067L-2997.825,463.288C-2997.825,464.392,-2997.766,465.147,-2997.651,465.554C-2997.535,465.961,-2997.231,466.164,-2996.738,466.164C-2996.274,466.164,-2995.984,465.946,-2995.868,465.510C-2995.723,465.075,-2995.650,464.581,-2995.650,464.029C-2995.650,463.012,-2995.824,462.140,-2996.173,461.414C-2996.491,460.687,-2996.911,460.048,-2997.434,459.496C-2997.955,458.915,-2998.535,458.377,-2999.173,457.883C-2999.781,457.360,-3000.390,456.794,-3000.999,456.184C-3001.666,455.515,-3002.216,454.920,-3002.652,454.397C-3003.086,453.845,-3003.434,453.264,-3003.695,452.653C-3003.927,452.043,-3004.101,451.375,-3004.217,450.649C-3004.304,449.893,-3004.348,448.992,-3004.348,447.947C-3004.348,446.930,-3004.159,446.014,-3003.782,445.201C-3003.376,444.358,-3002.840,443.646,-3002.173,443.065C-3001.506,442.484,-3000.724,442.034,-2999.825,441.714C-2998.926,441.395,-2997.969,441.235,-2996.955,441.235C-2995.911,441.235,-2994.940,441.395,-2994.042,441.714C-2993.142,442.005,-2992.360,442.441,-2991.693,443.022C-2991.026,443.603,-2990.505,444.315,-2990.128,445.157C-2989.751,445.971,-2989.562,446.901,-2989.562,447.947L-2989.562,450.213C-2989.562,450.358,-2989.751,450.431,-2990.128,450.431C-2990.505,450.402,-2991.200,450.387,-2992.215,450.387C-2994.650,450.387,-2995.868,450.315,-2995.868,450.169L-2995.868,448.208C-2995.868,447.714,-2995.984,447.336,-2996.216,447.075C-2996.418,446.813,-2996.665,446.683,-2996.955,446.683C-2997.245,446.683,-2997.506,446.813,-2997.738,447.075C-2997.941,447.307,-2998.042,447.670,-2998.042,448.164C-2998.042,448.891,-2998.013,449.486,-2997.955,449.951C-2997.897,450.387,-2997.752,450.808,-2997.521,451.215C-2997.288,451.593,-2996.941,452.000,-2996.477,452.436C-2996.013,452.871,-2995.360,453.438,-2994.520,454.135C-2993.911,454.658,-2993.288,455.210,-2992.650,455.791C-2992.012,456.373,-2991.432,457.070,-2990.910,457.883C-2990.389,458.668,-2989.968,459.612,-2989.649,460.716C-2989.301,461.791,-2989.128,463.084,-2989.128,464.595ZL-2989.128,464.595ZM-2972.652,445.855C-2972.623,445.390,-2972.608,444.780,-2972.608,444.024C-2972.608,443.414,-2972.623,442.920,-2972.652,442.542C-2972.652,442.165,-2972.666,441.889,-2972.695,441.714C-2972.725,441.511,-2972.782,441.380,-2972.869,441.322C-2972.956,441.264,-2973.058,441.235,-2973.173,441.235L-2987.219,441.235C-2987.365,441.235,-2987.481,441.264,-2987.568,441.322C-2987.625,441.380,-2987.683,441.511,-2987.741,441.714C-2987.770,441.918,-2987.799,442.223,-2987.828,442.629L-2987.828,444.242L-2987.828,445.855C-2987.799,446.261,-2987.756,446.581,-2987.698,446.813C-2987.639,447.017,-2987.568,447.162,-2987.481,447.249C-2987.365,447.307,-2987.219,447.336,-2987.045,447.336L-2985.437,447.336L-2984.480,447.336C-2984.161,447.336,-2983.943,447.365,-2983.828,447.424C-2983.625,447.569,-2983.523,447.801,-2983.523,448.121L-2983.523,449.036L-2983.523,471.307C-2983.523,471.423,-2983.494,471.510,-2983.436,471.568C-2983.378,471.627,-2983.248,471.670,-2983.045,471.699C-2982.842,471.728,-2982.537,471.743,-2982.131,471.743L-2980.436,471.743L-2978.523,471.743C-2978.059,471.714,-2977.710,471.685,-2977.479,471.656C-2977.247,471.626,-2977.102,471.583,-2977.044,471.525C-2976.986,471.467,-2976.957,471.394,-2976.957,471.307L-2976.957,449.036L-2976.957,448.121C-2976.957,447.801,-2976.855,447.569,-2976.652,447.424C-2976.536,447.365,-2976.319,447.336,-2976.001,447.336L-2975.000,447.336L-2973.130,447.336C-2973.015,447.336,-2972.928,447.307,-2972.869,447.249C-2972.782,447.191,-2972.725,447.060,-2972.695,446.857C-2972.666,446.624,-2972.652,446.290,-2972.652,445.855ZL-2972.652,445.855ZM-3061.970,464.837C-3062.146,465.750,-3062.209,466.650,-3062.159,467.537C-3062.133,468.528,-3061.867,469.367,-3061.360,470.054C-3060.852,470.715,-3060.218,471.198,-3059.457,471.503C-3058.696,471.808,-3057.884,471.922,-3057.022,471.846C-3056.134,471.770,-3055.310,471.490,-3054.549,471.007C-3054.600,471.210,-3054.650,471.388,-3054.701,471.541L-3055.881,472.418C-3056.286,472.723,-3056.743,472.990,-3057.250,473.219C-3057.732,473.448,-3058.240,473.689,-3058.772,473.943C-3059.381,474.223,-3060.028,474.515,-3060.713,474.821C-3061.372,475.151,-3061.994,475.545,-3062.577,476.003C-3063.186,476.460,-3063.731,477.020,-3064.213,477.681C-3064.721,478.342,-3065.101,479.130,-3065.355,480.045C-3065.532,480.655,-3065.609,481.202,-3065.583,481.685C-3065.583,482.193,-3065.520,482.625,-3065.393,482.981C-3065.291,483.363,-3065.139,483.681,-3064.936,483.935C-3064.759,484.189,-3064.594,484.392,-3064.442,484.545C-3063.960,484.977,-3063.427,485.282,-3062.844,485.460C-3062.260,485.664,-3061.664,485.765,-3061.055,485.765C-3060.599,485.765,-3060.155,485.714,-3059.724,485.613C-3059.292,485.536,-3058.886,485.435,-3058.506,485.308C-3057.593,485.003,-3056.806,484.570,-3056.147,484.011C-3055.462,483.452,-3054.879,482.829,-3054.397,482.142C-3053.889,481.456,-3053.471,480.731,-3053.141,479.969C-3052.786,479.206,-3052.481,478.469,-3052.228,477.757C-3052.025,477.147,-3051.847,476.587,-3051.695,476.079C-3051.518,475.570,-3051.340,474.998,-3051.162,474.363C-3050.021,473.753,-3048.879,473.117,-3047.738,472.456C-3046.597,471.795,-3045.493,471.071,-3044.428,470.282C-3043.337,469.469,-3042.310,468.592,-3041.346,467.651C-3040.382,466.685,-3039.494,465.605,-3038.682,464.410C-3038.276,464.003,-3038.074,463.520,-3038.074,462.961C-3038.074,462.401,-3038.289,461.918,-3038.720,461.511C-3039.126,461.105,-3039.596,460.901,-3040.128,460.901C-3040.661,460.876,-3041.079,461.105,-3041.384,461.588C-3041.891,462.401,-3042.500,463.189,-3043.210,463.952C-3043.895,464.689,-3044.618,465.376,-3045.379,466.011C-3046.140,466.621,-3046.914,467.181,-3047.700,467.689C-3048.486,468.172,-3049.235,468.566,-3049.945,468.871C-3049.311,467.219,-3048.677,465.528,-3048.042,463.799C-3047.408,462.045,-3046.673,460.444,-3045.836,458.995C-3045.683,458.766,-3045.595,458.499,-3045.569,458.194C-3045.544,457.889,-3045.582,457.596,-3045.683,457.317C-3045.785,457.011,-3045.924,456.732,-3046.102,456.478C-3046.279,456.198,-3046.482,455.982,-3046.711,455.829C-3047.193,455.499,-3047.713,455.397,-3048.271,455.524C-3048.803,455.626,-3049.235,455.906,-3049.564,456.363C-3049.818,456.719,-3050.084,457.151,-3050.363,457.660C-3050.642,458.143,-3050.921,458.651,-3051.200,459.185C-3051.454,459.694,-3051.695,460.202,-3051.923,460.711C-3052.126,461.219,-3052.279,461.677,-3052.380,462.083L-3053.293,464.372C-3053.623,465.236,-3054.003,466.024,-3054.435,466.736C-3054.866,467.422,-3055.348,467.918,-3055.881,468.223C-3056.388,468.528,-3056.933,468.427,-3057.517,467.918C-3057.796,467.486,-3057.884,466.901,-3057.783,466.164C-3057.682,465.427,-3057.479,464.651,-3057.174,463.838C-3056.870,462.999,-3056.515,462.172,-3056.109,461.359C-3055.703,460.520,-3055.348,459.795,-3055.043,459.185L-3054.739,458.575C-3054.612,458.321,-3054.562,458.054,-3054.587,457.774C-3054.612,457.495,-3054.688,457.228,-3054.815,456.973C-3054.917,456.694,-3055.082,456.440,-3055.310,456.211C-3055.513,455.982,-3055.741,455.804,-3055.995,455.677C-3056.502,455.423,-3057.022,455.397,-3057.555,455.601C-3058.087,455.778,-3058.481,456.122,-3058.734,456.630L-3059.039,457.240C-3059.394,457.952,-3059.774,458.728,-3060.180,459.567C-3060.296,459.815,-3060.409,460.067,-3060.518,460.322C-3060.743,460.347,-3060.991,460.388,-3061.260,460.444C-3061.691,460.596,-3062.249,460.774,-3062.934,460.978C-3063.594,461.181,-3064.279,461.410,-3064.989,461.664C-3065.699,461.893,-3066.384,462.134,-3067.044,462.389C-3067.703,462.617,-3068.223,462.846,-3068.604,463.075C-3069.187,462.490,-3069.847,462.033,-3070.582,461.702C-3071.292,461.372,-3071.965,461.066,-3072.599,460.787C-3073.309,460.456,-3073.804,460.126,-3074.083,459.795C-3074.336,459.439,-3074.400,459.134,-3074.273,458.880C-3074.146,458.600,-3073.855,458.384,-3073.398,458.232C-3072.916,458.079,-3072.294,458.028,-3071.533,458.079C-3071.331,458.359,-3071.064,458.575,-3070.734,458.728C-3070.379,458.880,-3069.999,458.931,-3069.593,458.880C-3068.832,458.804,-3068.325,458.511,-3068.071,458.003C-3067.792,457.495,-3067.754,456.948,-3067.957,456.363C-3068.134,455.753,-3068.540,455.206,-3069.174,454.723C-3069.809,454.215,-3070.646,453.935,-3071.686,453.884C-3072.573,453.732,-3073.423,453.808,-3074.235,454.113C-3075.047,454.393,-3075.770,454.812,-3076.404,455.372C-3077.038,455.931,-3077.558,456.592,-3077.964,457.355C-3078.370,458.092,-3078.585,458.855,-3078.611,459.643C-3078.661,460.405,-3078.497,461.143,-3078.116,461.855C-3078.088,461.907,-3078.059,461.959,-3078.028,462.010C-3078.051,462.058,-3078.073,462.108,-3078.093,462.160C-3078.448,463.050,-3078.955,463.876,-3079.615,464.638C-3080.249,465.401,-3080.934,466.062,-3081.670,466.621C-3082.380,467.181,-3083.077,467.626,-3083.762,467.956C-3084.447,468.261,-3085.005,468.414,-3085.436,468.414C-3085.614,468.058,-3085.627,467.600,-3085.474,467.041C-3085.322,466.456,-3085.081,465.833,-3084.752,465.172C-3084.396,464.486,-3084.003,463.774,-3083.572,463.037C-3083.115,462.300,-3082.684,461.575,-3082.278,460.863C-3081.872,460.151,-3081.530,459.490,-3081.251,458.880C-3080.972,458.245,-3080.832,457.698,-3080.832,457.240C-3080.832,456.656,-3081.073,456.173,-3081.555,455.791C-3082.012,455.384,-3082.595,455.181,-3083.306,455.181C-3083.813,455.181,-3084.270,455.257,-3084.675,455.410C-3085.056,455.562,-3085.386,455.753,-3085.665,455.982C-3087.263,455.550,-3088.836,455.512,-3090.383,455.867C-3091.930,456.223,-3093.351,456.859,-3094.644,457.774C-3095.380,458.283,-3096.065,458.956,-3096.699,459.795C-3096.894,460.064,-3097.079,460.340,-3097.253,460.622C-3097.355,460.754,-3097.445,460.898,-3097.522,461.054C-3097.751,461.511,-3098.131,462.058,-3098.664,462.694C-3099.197,463.304,-3099.831,463.927,-3100.566,464.562C-3101.302,465.198,-3102.114,465.808,-3103.002,466.393C-3103.864,466.952,-3104.752,467.410,-3105.665,467.766C-3106.553,468.096,-3107.441,468.287,-3108.328,468.338C-3109.191,468.388,-3109.990,468.210,-3110.726,467.804L-3111.106,467.499C-3111.208,467.397,-3111.309,467.270,-3111.411,467.117C-3110.320,467.168,-3109.280,467.028,-3108.290,466.698C-3107.301,466.342,-3106.413,465.859,-3105.627,465.249C-3104.841,464.638,-3104.168,463.901,-3103.610,463.037C-3103.027,462.172,-3102.608,461.232,-3102.355,460.215C-3102.101,459.198,-3102.000,458.397,-3102.050,457.812C-3102.101,457.228,-3102.253,456.656,-3102.507,456.096C-3102.786,455.334,-3103.255,454.800,-3103.915,454.495C-3104.549,454.189,-3105.259,454.037,-3106.046,454.037C-3106.807,454.037,-3107.593,454.164,-3108.405,454.418C-3109.191,454.673,-3109.863,454.965,-3110.421,455.295C-3111.233,455.778,-3111.994,456.376,-3112.704,457.088C-3113.414,457.800,-3114.023,458.600,-3114.531,459.490C-3115.038,460.380,-3115.418,461.372,-3115.672,462.465C-3115.951,463.533,-3116.040,464.677,-3115.938,465.897C-3115.837,467.016,-3115.583,467.982,-3115.177,468.795C-3114.797,469.609,-3114.302,470.282,-3113.693,470.816C-3113.059,471.325,-3112.349,471.693,-3111.563,471.922C-3110.751,472.176,-3109.889,472.304,-3108.975,472.304C-3107.352,472.304,-3105.754,471.986,-3104.181,471.350C-3102.583,470.740,-3101.112,469.965,-3099.767,469.024C-3099.534,468.856,-3099.305,468.686,-3099.082,468.514C-3098.908,469.246,-3098.570,469.887,-3098.069,470.435C-3097.511,471.045,-3096.712,471.439,-3095.672,471.617C-3095.190,471.719,-3094.695,471.719,-3094.188,471.617C-3093.680,471.516,-3093.199,471.350,-3092.742,471.121C-3092.260,470.893,-3091.803,470.638,-3091.372,470.359C-3090.941,470.054,-3090.548,469.749,-3090.193,469.443C-3089.914,470.486,-3089.355,471.274,-3088.518,471.808C-3087.681,472.367,-3086.768,472.647,-3085.779,472.647C-3084.790,472.647,-3083.750,472.405,-3082.659,471.922C-3081.568,471.439,-3080.503,470.804,-3079.463,470.015C-3078.397,469.227,-3077.408,468.338,-3076.495,467.346C-3075.649,466.405,-3074.934,465.452,-3074.350,464.489C-3074.223,464.540,-3074.096,464.590,-3073.969,464.638C-3073.233,464.893,-3072.535,465.236,-3071.876,465.668C-3073.423,466.888,-3074.717,468.185,-3075.757,469.558C-3076.797,470.905,-3077.292,472.342,-3077.241,473.867C-3077.216,474.604,-3076.962,475.240,-3076.480,475.774C-3075.973,476.308,-3075.364,476.575,-3074.654,476.575C-3073.867,476.575,-3073.017,476.308,-3072.104,475.774C-3071.166,475.240,-3070.303,474.528,-3069.517,473.638C-3068.731,472.748,-3068.071,471.719,-3067.538,470.549C-3067.006,469.354,-3066.739,468.122,-3066.739,466.850C-3066.333,466.469,-3065.801,466.151,-3065.141,465.897C-3064.482,465.617,-3063.771,465.363,-3063.010,465.134C-3062.664,465.030,-3062.317,464.931,-3061.970,464.837ZL-3061.970,464.837ZM-3107.682,458.422C-3107.124,458.219,-3106.642,458.206,-3106.236,458.384C-3105.931,458.689,-3105.919,459.134,-3106.198,459.719C-3106.477,460.304,-3106.908,460.876,-3107.491,461.435C-3108.075,461.969,-3108.747,462.414,-3109.508,462.770C-3110.269,463.100,-3110.992,463.164,-3111.677,462.961L-3111.677,462.922C-3111.525,462.236,-3111.233,461.588,-3110.802,460.978C-3110.345,460.342,-3109.850,459.808,-3109.318,459.376C-3108.785,458.918,-3108.240,458.600,-3107.682,458.422ZL-3107.682,458.422ZM-3092.438,466.011C-3093.072,466.545,-3093.731,466.914,-3094.416,467.117C-3094.340,465.846,-3093.998,464.638,-3093.389,463.494C-3092.780,462.325,-3092.044,461.384,-3091.182,460.672C-3090.827,460.367,-3090.370,460.113,-3089.812,459.910C-3089.229,459.706,-3088.721,459.617,-3088.290,459.643C-3088.214,459.643,-3088.163,459.656,-3088.138,459.681C-3088.417,460.342,-3088.772,461.066,-3089.203,461.855C-3089.635,462.617,-3090.129,463.367,-3090.687,464.105C-3091.220,464.816,-3091.803,465.452,-3092.438,466.011ZL-3092.438,466.011ZM-3060.827,481.647C-3061.131,481.672,-3061.360,481.659,-3061.512,481.609C-3061.512,481.558,-3061.499,481.494,-3061.474,481.418C-3061.474,481.367,-3061.461,481.291,-3061.436,481.189C-3061.157,480.299,-3060.662,479.626,-3059.952,479.168C-3059.242,478.710,-3058.316,478.227,-3057.174,477.719L-3056.489,477.414C-3056.946,478.558,-3057.453,479.448,-3058.011,480.083C-3058.544,480.744,-3059.140,481.189,-3059.800,481.418C-3060.180,481.545,-3060.523,481.621,-3060.827,481.647ZL-3060.827,481.647Z" style="fill: rgb(247, 248, 249); fill-opacity: 1;"/></g></g></svg>