<svg id="visual" viewBox="0 0 900 600" width="900" height="600" xmlns="http://www.w3.org/2000/svg" xmlns:xlink="http://www.w3.org/1999/xlink" version="1.1"><path d="M0 73L13.7 72C27.3 71 54.7 69 82 68C109.3 67 136.7 67 163.8 64C191 61 218 55 245.2 54C272.3 53 299.7 57 327 56C354.3 55 381.7 49 409 48C436.3 47 463.7 51 491 52C518.3 53 545.7 51 573 53C600.3 55 627.7 61 654.8 64C682 67 709 67 736.2 68C763.3 69 790.7 71 818 71C845.3 71 872.7 69 886.3 68L900 67L900 0L886.3 0C872.7 0 845.3 0 818 0C790.7 0 763.3 0 736.2 0C709 0 682 0 654.8 0C627.7 0 600.3 0 573 0C545.7 0 518.3 0 491 0C463.7 0 436.3 0 409 0C381.7 0 354.3 0 327 0C299.7 0 272.3 0 245.2 0C218 0 191 0 163.8 0C136.7 0 109.3 0 82 0C54.7 0 27.3 0 13.7 0L0 0Z" fill="#fcfeff"></path><path d="M0 157L13.7 153C27.3 149 54.7 141 82 140C109.3 139 136.7 145 163.8 149C191 153 218 155 245.2 158C272.3 161 299.7 165 327 163C354.3 161 381.7 153 409 155C436.3 157 463.7 169 491 164C518.3 159 545.7 137 573 135C600.3 133 627.7 151 654.8 156C682 161 709 153 736.2 153C763.3 153 790.7 161 818 167C845.3 173 872.7 177 886.3 179L900 181L900 65L886.3 66C872.7 67 845.3 69 818 69C790.7 69 763.3 67 736.2 66C709 65 682 65 654.8 62C627.7 59 600.3 53 573 51C545.7 49 518.3 51 491 50C463.7 49 436.3 45 409 46C381.7 47 354.3 53 327 54C299.7 55 272.3 51 245.2 52C218 53 191 59 163.8 62C136.7 65 109.3 65 82 66C54.7 67 27.3 69 13.7 70L0 71Z" fill="#fcfeff"></path><path d="M0 211L13.7 207C27.3 203 54.7 195 82 198C109.3 201 136.7 215 163.8 218C191 221 218 213 245.2 210C272.3 207 299.7 209 327 208C354.3 207 381.7 203 409 207C436.3 211 463.7 223 491 220C518.3 217 545.7 199 573 201C600.3 203 627.7 225 654.8 232C682 239 709 231 736.2 225C763.3 219 790.7 215 818 221C845.3 227 872.7 243 886.3 251L900 259L900 179L886.3 177C872.7 175 845.3 171 818 165C790.7 159 763.3 151 736.2 151C709 151 682 159 654.8 154C627.7 149 600.3 131 573 133C545.7 135 518.3 157 491 162C463.7 167 436.3 155 409 153C381.7 151 354.3 159 327 161C299.7 163 272.3 159 245.2 156C218 153 191 151 163.8 147C136.7 143 109.3 137 82 138C54.7 139 27.3 147 13.7 151L0 155Z" fill="#fbfdff"></path><path d="M0 283L13.7 280C27.3 277 54.7 271 82 277C109.3 283 136.7 301 163.8 306C191 311 218 303 245.2 301C272.3 299 299.7 303 327 298C354.3 293 381.7 279 409 280C436.3 281 463.7 297 491 297C518.3 297 545.7 281 573 283C600.3 285 627.7 305 654.8 312C682 319 709 313 736.2 310C763.3 307 790.7 307 818 312C845.3 317 872.7 327 886.3 332L900 337L900 257L886.3 249C872.7 241 845.3 225 818 219C790.7 213 763.3 217 736.2 223C709 229 682 237 654.8 230C627.7 223 600.3 201 573 199C545.7 197 518.3 215 491 218C463.7 221 436.3 209 409 205C381.7 201 354.3 205 327 206C299.7 207 272.3 205 245.2 208C218 211 191 219 163.8 216C136.7 213 109.3 199 82 196C54.7 193 27.3 201 13.7 205L0 209Z" fill="#f4faff"></path><path d="M0 439L13.7 438C27.3 437 54.7 435 82 441C109.3 447 136.7 461 163.8 467C191 473 218 471 245.2 470C272.3 469 299.7 469 327 467C354.3 465 381.7 461 409 463C436.3 465 463.7 473 491 461C518.3 449 545.7 417 573 418C600.3 419 627.7 453 654.8 467C682 481 709 475 736.2 468C763.3 461 790.7 453 818 456C845.3 459 872.7 473 886.3 480L900 487L900 335L886.3 330C872.7 325 845.3 315 818 310C790.7 305 763.3 305 736.2 308C709 311 682 317 654.8 310C627.7 303 600.3 283 573 281C545.7 279 518.3 295 491 295C463.7 295 436.3 279 409 278C381.7 277 354.3 291 327 296C299.7 301 272.3 297 245.2 299C218 301 191 309 163.8 304C136.7 299 109.3 281 82 275C54.7 269 27.3 275 13.7 278L0 281Z" fill="#e7f3ff"></path><path d="M0 601L13.7 601C27.3 601 54.7 601 82 601C109.3 601 136.7 601 163.8 601C191 601 218 601 245.2 601C272.3 601 299.7 601 327 601C354.3 601 381.7 601 409 601C436.3 601 463.7 601 491 601C518.3 601 545.7 601 573 601C600.3 601 627.7 601 654.8 601C682 601 709 601 736.2 601C763.3 601 790.7 601 818 601C845.3 601 872.7 601 886.3 601L900 601L900 485L886.3 478C872.7 471 845.3 457 818 454C790.7 451 763.3 459 736.2 466C709 473 682 479 654.8 465C627.7 451 600.3 417 573 416C545.7 415 518.3 447 491 459C463.7 471 436.3 463 409 461C381.7 459 354.3 463 327 465C299.7 467 272.3 467 245.2 468C218 469 191 471 163.8 465C136.7 459 109.3 445 82 439C54.7 433 27.3 435 13.7 436L0 437Z" fill="#daecff"></path></svg>