<svg xmlns:xlink="http://www.w3.org/1999/xlink" width="28" xmlns="http://www.w3.org/2000/svg" height="27.327" id="screenshot-35e54fd8-9338-808e-8003-1fe4c51b1753" viewBox="-2138.98 7029.991 28 27.327" style="-webkit-print-color-adjust: exact;" fill="none" version="1.1"><g id="shape-35e54fd8-9338-808e-8003-1fe4c51b1753"><g class="fills" id="fills-35e54fd8-9338-808e-8003-1fe4c51b1753"><path rx="0" ry="0" d="M-2130.428,7056.954C-2133.612,7055.606,-2136.393,7052.871,-2137.772,7049.732C-2139.486,7045.829,-2139.371,7041.416,-2137.457,7037.667C-2136.014,7034.842,-2133.500,7032.457,-2130.640,7031.197C-2125.164,7028.787,-2118.905,7030.055,-2114.766,7034.412C-2112.935,7036.341,-2111.802,7038.504,-2111.187,7041.246C-2110.910,7042.479,-2110.910,7045.569,-2111.187,7046.802C-2111.983,7050.351,-2113.836,7053.232,-2116.695,7055.362C-2118.501,7056.707,-2120.846,7057.654,-2121.230,7057.191C-2121.321,7057.081,-2121.386,7056.074,-2121.415,7054.334C-2121.458,7051.819,-2121.479,7051.610,-2121.753,7051.052C-2121.914,7050.725,-2122.105,7050.421,-2122.177,7050.376C-2122.249,7050.332,-2121.736,7050.167,-2121.037,7050.010C-2117.584,7049.235,-2115.972,7047.151,-2115.976,7043.462C-2115.976,7041.943,-2116.223,7041.091,-2116.946,7040.084C-2117.324,7039.558,-2117.371,7039.420,-2117.266,7039.145C-2117.078,7038.651,-2117.119,7037.087,-2117.340,7036.345L-2117.537,7035.681L-2118.175,7035.756C-2118.809,7035.831,-2120.341,7036.482,-2121.016,7036.962C-2121.362,7037.208,-2121.391,7037.209,-2122.225,7037.002C-2123.321,7036.730,-2126.454,7036.725,-2127.626,7036.994L-2128.424,7037.177L-2129.251,7036.692C-2130.096,7036.196,-2131.433,7035.713,-2131.961,7035.713C-2132.337,7035.713,-2132.476,7035.981,-2132.662,7037.068C-2132.778,7037.744,-2132.778,7038.124,-2132.667,7038.735C-2132.522,7039.515,-2132.525,7039.532,-2132.888,7040.038C-2133.482,7040.866,-2133.789,7041.789,-2133.858,7042.962C-2134.097,7046.969,-2132.189,7049.461,-2128.379,7050.113L-2127.521,7050.261L-2127.769,7050.524C-2127.906,7050.669,-2128.120,7051.093,-2128.247,7051.466C-2128.461,7052.095,-2128.517,7052.155,-2129.029,7052.309C-2129.680,7052.506,-2130.708,7052.437,-2131.242,7052.160C-2131.450,7052.053,-2131.836,7051.702,-2132.100,7051.381C-2133.403,7049.793,-2134.140,7049.308,-2134.943,7049.509C-2135.423,7049.629,-2135.341,7049.866,-2134.601,7050.498C-2134.112,7050.916,-2133.776,7051.369,-2133.326,7052.215C-2132.436,7053.893,-2131.733,7054.272,-2129.664,7054.192L-2128.517,7054.147L-2128.517,7055.590C-2128.517,7056.547,-2128.568,7057.085,-2128.668,7057.184C-2128.906,7057.422,-2129.512,7057.343,-2130.428,7056.954ZZ" style="fill: rgb(247, 248, 249); fill-opacity: 1;"/></g></g></svg>