<svg xmlns:xlink="http://www.w3.org/1999/xlink" width="28" xmlns="http://www.w3.org/2000/svg" height="28" id="screenshot-35e54fd8-9338-808e-8003-1fe4c51b1757" viewBox="-0 0 28 28" style="-webkit-print-color-adjust: exact;" fill="none" version="1.1"><g id="shape-35e54fd8-9338-808e-8003-1fe4c51b1757" version="1.1" rx="0" ry="0" style="fill: rgb(0, 0, 0);"><g id="shape-35e54fd8-9338-808e-8003-1fe4c51b1759"><g class="fills" id="fills-35e54fd8-9338-808e-8003-1fe4c51b1759"><path rx="0" ry="0" d="M6.410,24.546C3.905,24.340,2.136,23.562,1.183,22.247C0.650,21.512,0.272,20.247,0.093,18.603C-0.093,16.892,0.021,7.976,0.241,7.091C0.620,5.564,1.750,4.391,3.271,3.949C4.773,3.513,4.511,3.468,12.187,3.397C22.964,3.298,24.197,3.466,25.917,4.474C27.759,5.554,28.094,7.219,27.980,14.738C27.904,19.739,27.809,20.478,27.064,21.875C26.560,22.821,25.952,23.395,24.983,23.838C23.447,24.541,24.042,24.576,15.071,24.620C10.496,24.643,7.189,24.610,6.410,24.546ZZM14.937,16.517C18.533,14.657,18.760,14.500,18.760,13.878C18.760,13.583,18.664,13.331,18.498,13.189C18.354,13.066,16.799,12.222,15.043,11.315C11.681,9.578,11.226,9.432,10.765,9.942C10.529,10.202,10.506,10.499,10.474,13.732C10.437,17.480,10.474,17.753,11.095,18.061C11.266,18.147,11.536,18.178,11.695,18.131C11.854,18.083,13.313,17.358,14.937,16.517ZZ" style="fill: rgb(247, 248, 249); fill-opacity: 1;"/></g></g></g></svg>