<svg xmlns:xlink="http://www.w3.org/1999/xlink" width="28" xmlns="http://www.w3.org/2000/svg" height="28" id="screenshot-35e54fd8-9338-808e-8003-1fe4c51b1754" viewBox="0 0 28 28" style="-webkit-print-color-adjust: exact;" fill="none" version="1.1"><g id="shape-35e54fd8-9338-808e-8003-1fe4c51b1754" version="1.1" rx="0" ry="0" style="fill: rgb(0, 0, 0);"><g id="shape-35e54fd8-9338-808e-8003-1fe4c51b1756"><g class="fills" id="fills-35e54fd8-9338-808e-8003-1fe4c51b1756"><path rx="0" ry="0" d="M10.252,27.896C8.657,27.644,6.826,27.153,5.960,26.745C4.725,26.165,3.261,24.650,2.568,23.235C1.323,20.696,0.907,17.833,0.897,11.728C0.889,6.847,0.941,6.457,1.875,4.496C2.327,3.545,2.677,3.069,3.486,2.306C4.370,1.471,4.691,1.275,5.713,0.937C7.838,0.235,9.944,-0.002,14.051,0.000C18.128,0.000,20.066,0.225,22.241,0.939C23.263,1.276,23.582,1.470,24.461,2.300C26.064,3.812,26.871,5.718,27.077,8.471C27.192,10.014,26.913,14.694,26.613,16.262C26.358,17.596,25.801,18.476,24.686,19.309C22.364,21.044,19.728,21.658,14.729,21.628C12.700,21.616,11.573,21.532,10.238,21.295C9.258,21.121,8.420,20.979,8.375,20.979C8.330,20.979,8.331,21.342,8.375,21.787C8.531,23.306,9.322,24.314,10.750,24.818C12.233,25.342,15.742,25.350,17.968,24.836L18.863,24.629L18.863,25.788C18.863,27.140,18.904,27.104,16.845,27.615C15.449,27.961,11.678,28.121,10.252,27.896ZZM8.490,13.119C8.496,9.601,8.523,9.104,8.771,8.557C9.113,7.806,9.705,7.520,10.688,7.630C12.166,7.797,12.548,8.736,12.548,12.199L12.548,14.210L15.406,14.210L15.406,12.111C15.406,9.559,15.571,8.680,16.155,8.121C16.670,7.627,17.716,7.452,18.419,7.743C19.327,8.119,19.387,8.428,19.439,12.969L19.485,17.068L22.476,17.068L22.476,13.270C22.476,9.213,22.348,7.922,21.853,6.934C21.000,5.232,19.205,4.368,17.262,4.723C16.117,4.933,15.327,5.496,14.571,6.643L13.960,7.569L13.479,6.765C12.589,5.277,11.584,4.691,9.917,4.687C7.604,4.681,6.089,6.002,5.643,8.415C5.552,8.907,5.479,11.026,5.479,13.184L5.479,17.068L8.488,17.068L8.490,13.119ZZ" style="fill: rgb(247, 248, 249); fill-opacity: 1;"/></g></g></g></svg>