<svg xmlns:xlink="http://www.w3.org/1999/xlink" width="28" xmlns="http://www.w3.org/2000/svg" height="28" id="screenshot-35e54fd8-9338-808e-8003-1fe4c51b175a" viewBox="0 0 28 28" style="-webkit-print-color-adjust: exact;" fill="none" version="1.1"><g id="shape-35e54fd8-9338-808e-8003-1fe4c51b175a" version="1.1" rx="0" ry="0" style="fill: rgb(0, 0, 0);"><g id="shape-35e54fd8-9338-808e-8003-1fe4c51b175c"><g class="fills" id="fills-35e54fd8-9338-808e-8003-1fe4c51b175c"><path rx="0" ry="0" d="M4.526,27.823C2.345,27.294,0.598,25.490,0.142,23.297C-0.047,22.383,-0.047,5.623,0.142,4.708C0.611,2.455,2.454,0.611,4.707,0.143C5.622,-0.048,22.378,-0.048,23.293,0.143C25.546,0.611,27.389,2.455,27.858,4.708C28.047,5.623,28.047,22.383,27.858,23.297C27.389,25.551,25.546,27.395,23.293,27.863C22.307,28.069,5.388,28.032,4.526,27.823ZZM9.335,15.745L9.335,9.337L5.852,9.337L5.852,22.152L9.335,22.152ZM15.206,18.379L15.244,14.605L15.621,13.994C16.568,12.465,18.500,12.421,19.374,13.910L19.722,14.501L19.760,18.327L19.797,22.152L23.391,22.152L23.391,17.953C23.386,13.345,23.305,12.570,22.688,11.435C21.910,10.007,20.377,9.231,18.622,9.378C17.439,9.477,16.074,10.135,15.549,10.859L15.183,11.365L15.183,9.337L11.700,9.337L11.700,22.152L15.170,22.152ZM8.687,7.511C9.908,6.607,9.902,4.971,8.673,4.061C8.411,3.866,8.137,3.800,7.594,3.800C6.777,3.800,6.364,4.026,5.883,4.732C5.292,5.601,5.640,7.022,6.581,7.583C7.152,7.924,8.177,7.888,8.687,7.511ZZ" style="fill: rgb(247, 248, 249); fill-opacity: 1;"/></g></g></g></svg>