<svg xmlns:xlink="http://www.w3.org/1999/xlink" width="28" xmlns="http://www.w3.org/2000/svg" height="28" id="screenshot-35e54fd8-9338-808e-8003-1fe4c51b174e" viewBox="0 0 28 28" style="-webkit-print-color-adjust: exact;" fill="none" version="1.1"><g id="shape-35e54fd8-9338-808e-8003-1fe4c51b174e" version="1.1" rx="0" ry="0" style="fill: rgb(0, 0, 0);"><g id="shape-35e54fd8-9338-808e-8003-1fe4c51b1750"><g class="fills" id="fills-35e54fd8-9338-808e-8003-1fe4c51b1750"><path rx="0" ry="0" d="M7.712,27.894C4.534,27.609,2.210,26.212,1.087,23.913C0.137,21.967,0.000,20.722,0.000,14.008C0.000,8.927,0.093,7.144,0.429,5.827C0.973,3.695,2.358,1.911,4.120,1.075C6.106,0.132,7.319,0.000,14.000,0.000C19.078,0.000,20.859,0.094,22.177,0.430C24.307,0.974,26.089,2.359,26.925,4.123C27.868,6.110,28.000,7.323,28.000,14.008C28.000,20.693,27.868,21.906,26.925,23.893C26.089,25.656,24.307,27.042,22.177,27.586C21.742,27.696,20.818,27.839,20.122,27.901C18.624,28.037,9.235,28.031,7.712,27.894ZZM21.471,25.173C23.252,24.698,24.519,23.540,25.030,21.919C25.435,20.638,25.551,18.267,25.483,12.637C25.427,7.940,25.401,7.449,25.158,6.533C24.685,4.751,23.528,3.483,21.907,2.971C20.627,2.567,18.256,2.451,12.630,2.518C7.935,2.574,7.445,2.600,6.529,2.844C4.748,3.317,3.481,4.475,2.969,6.097C2.565,7.378,2.449,9.749,2.516,15.378C2.573,20.076,2.599,20.566,2.842,21.483C3.314,23.263,4.469,24.529,6.093,25.047C7.333,25.443,8.792,25.514,14.871,25.475C20.136,25.442,20.535,25.423,21.471,25.173ZZM12.381,21.026C9.902,20.556,7.431,18.036,6.973,15.511C6.507,12.934,7.169,10.735,8.949,8.955C10.728,7.174,12.927,6.511,15.502,6.978C18.085,7.446,20.557,9.920,21.026,12.505C21.492,15.081,20.829,17.281,19.050,19.061C17.264,20.848,14.985,21.519,12.381,21.026ZZM15.966,18.210C16.957,17.743,17.736,16.960,18.221,15.939C18.562,15.220,18.605,15.003,18.605,14.008C18.605,13.012,18.562,12.796,18.221,12.077C17.732,11.047,16.958,10.273,15.930,9.784C15.211,9.443,14.994,9.399,13.999,9.399C13.005,9.399,12.788,9.443,12.070,9.784C11.041,10.273,10.267,11.047,9.778,12.077C9.437,12.795,9.394,13.012,9.394,14.008C9.394,15.003,9.437,15.220,9.778,15.939C10.395,17.238,11.563,18.212,12.909,18.552C13.751,18.765,15.109,18.613,15.966,18.210ZZM20.942,8.132C20.525,8.043,19.954,7.409,19.865,6.935C19.606,5.554,20.774,4.527,22.076,4.988C22.677,5.200,23.023,5.642,23.113,6.308C23.192,6.900,22.904,7.605,22.465,7.893C22.143,8.103,21.377,8.224,20.942,8.132ZZ" style="fill: rgb(247, 248, 249); fill-opacity: 1;"/></g></g></g></svg>