<?xml version="1.0" encoding="UTF-8"?>
<svg id="Capa_2" data-name="Capa 2" xmlns="http://www.w3.org/2000/svg" viewBox="0 0 1109.73 572.98">
  <defs>
    <style>
      .cls-1 {
        fill: #fff;
      }
    </style>
  </defs>
  <g id="Capa_4" data-name="Capa 4">
    <g>
      <path class="cls-1" d="M204.46,239.96c3.45,3.68.56,15.53-.72,20.42-4.09,15.71-12.08,31.53-17.28,46.87-.28.83-1.94.14-2.15.45-.37.55.06,2.91-.45,4.34-2.37,6.65-5.37,11.16-6.12,18.71-.3,3.08-.52,16.59,2.44,17.12,1.16.21,20.7-3.92,23.2-4.63,4.64-1.32,15.17-9.73,17.03-2.1,1.13,4.63.17,7.35-3.62,10.03s-10.09,3.49-13.03,7.78c-9.55,14-1,35.99,5.62,49.45,4.48,9.11,8.39,16.24,17.22,21.57,1.52,4.73-1.93,5.41-2.3,7.94-.59,3.99,1.68,10.45,1.51,15.35-.27,7.68-4.37,14.44-5.12,21.9-2.21,21.93,4.56,51.74,30.11,56.82,8.75,1.74,37.3-2.69,42.7.75,4.04,2.57-.23,4.45-1.74,5.82-1.74,1.58-2.9,2-3.93,3-1.25,1.2-4.53,5.3-4.92,6.83-1.18,4.57,10.08,9.26,13.97,9.4,6.53.23,30.25-3.77,36.5-5.57.91-.26.3-2.05,3.04-2.26,5.34-.41,9.02,9.93,5.41,12.32-.8.53-2.45-.19-3.01.13-10.35,5.93-32.86,12.03-45.44,10.22s-38.06-23.87-50.98-27.89c-3.52-1.09-5.22-1.18-8.57-2.36-19.55-6.9-28.07-32.6-28.51-53.31-.18-8.5,5.78-24.2-2.2-29.9-6.11-4.37-13.22-.46-18.72,2.73-.44.26.11,1.56-.64,2.02-.5.3-2.44-.47-3.18.04-.24.16.16,1.83-.09,2.01-.65.46-2.4-.34-3.42.29-.59.36-1.99,2.87-2.57,3.24-1,.62-2.76-.15-3.4.3-.25.18.15,1.84-.09,2-.74.51-2.69-.26-3.18.04-.76.47-.19,1.76-.63,2.03-3.94,2.43-9.24,4.16-12.86,6.5-7.07,4.57-13.76,10.2-20.52,15.26l37.19-15.79c-.54-3.36,7.86-1.87,10.08-5.71,17.74-2.05,5.01,6.53-1.54,11.39-7.5,5.55-19.5,12.8-28.38,18.32-.98.61-2.63-.19-3.42.3-.22.14.14,1.71-.18,1.91-.68.42-1.91.09-2.72.59-28.28,17.51-61.09,40.3-90,55.34-4.43,2.31-20.21,8.85-23.95,6.19-.25-.18.15-1.82-.1-1.99-.65-.45-2.4.31-3.41-.3-3.06-1.87-6.51-7.69-8.11-10.48-.43-.75.21-2.34-.22-3.12-.14-.25-1.86.12-1.99-.11-.44-.8.24-2.36-.13-3.05-7.85-14.75-14.97-29.29-16.73-45.61-1.45-13.44,4.72-22.67,14.97-30.84,3.2-2.55,23.87-15.02,26.68-12.86,3.52,2.72-1.13,4.02-1.31,4.26-5.07,6.83-11.78,11.14-17.74,17.68-2.65,2.91-14.89,15.35-4.94,12.58,11.32-3.15,11.49-10.45,19.22-16.56,4.45-3.51,11.6-6.61,16.4-10.24l18.35,37.87c11.32,1.95,19.62-2.18,28.96-7.18.71-.38,2.41.32,3.05-.13.25-.18-.15-1.84.09-2,.77-.53,2.79.34,3.56-.19.24-.16-.16-1.83.09-2,.66-.46,2.42.25,3.07-.11,24.39-13.52,50.91-31.12,73.64-45.84.89-.58,2.66.32,3.49-.26.43-.3,7.49-5.59,7.86-5.96,3.9-3.89,5.81-12.89,5.31-18.32-.32-3.54-4.02-7.71-5.02-10.45-.5-1.37.47-4.31-.14-5.25-.19-.3-1.87.36-2.15-.45-.37-1.11.49-3.61.06-4.92-2.26-6.97-2.37-10.17-4.16-17.18-.53-2.07-8.85-20.61-9.88-21.14-.71-.37-7.77-2.01-8.53-2.48-.21-.13.1-1.58-.29-1.85-1.1-.77-5.31-3.22-5.6-4.41-.73-3.03-.39-19.31-.06-23.2,1.85-21.62,14.38-40.76,22.3-60.2.6-1.46.03-3.62.46-4.33.18-.31,1.77.39,2.14-.47.4-.96,1.18-9.26,1.51-9.75.17-.25,1.8.14,1.99-.11.29-.4,1.93-8.26,2.33-9.62,2.36-2.45,5.72-10.65,8.53-7.64ZM59.14,498.38c-.22-.59-4.42-5.1-5.65-5.65-3.13-1.38-7.34-1.4-10.59-.42-2.44.74-2.46,3.43-2.64,3.56-.85.59-2.71-.31-3.49.27-.19.14-2.09,3.7-2.51,4.01-2.55,1.93-5.48,2.83-7.71,4.01-.3.16.07,1.81-.15,1.96-.92.61-3.54-.36-4.53.1-.79.37-.8,1.57-1.27,1.79-1.63.75-2.8-.06-4.31,1.57-3.11,3.35-1.57,7.93,2.91,8.77l2.18,13.65c.32,1.12,3.49,6.48,3.63,6.88.44,1.27-.43,3.81-.06,4.92.27.8,2.03.16,2.16.44,1.25,2.74.42,6.54,4.7,8.85,8.17,4.42,14.47-3.11,20.77-6.68.65-.37,2.23.32,3.04-.14.22-.13-.14-1.74.17-1.92,8.04-4.64,16.91-8.92,24.96-14.16,5.97-3.89,11.98-7.86,17.29-12.65-9.67.38-17.89,10.38-27.22,8.38-.96-.21-8.93-7.16-9.67-8.73-2.96-6.3-.03-13.44-2.01-18.82Z"/>
      <path class="cls-1" d="M990.44,4.68c.23.22.16,5.36.05,6.25-.89,7.33-11.5,23.67-15.01,31.73s-4.99,16.63-7.63,23.67c-.33.89-2.02-.08-2.3.8-.36,1.12.51,3.57.02,4.91-2.14,5.75-7.36,14.28-9.15,20.16-1.6,5.25-6.73,27.21-5.78,31.42.87,3.85,6.03,10.52,10.99,8.13,5.65-2.72,9.58-18.42,11.23-24.42,3.63-.17,3.13-8.51,6.41-8.67,4.33-6.14,11.97-16.53,19.74-17.87,2.21-.38,17.69,1.33,18.43,2.02,3.09,2.88-4.27,19.45-5.05,23.77-.41,2.24-2.78,24.33-.41,24.39,3.04.07,9.55-21.99,11.38-25.68.72-1.45,9.36-13.33,10.34-14.3,8.84-8.68,31.42-17.12,39.21-29.2.39-.61-.31-2.36.14-3.04.17-.25,1.82.16,2-.09.17-.24.34-3.69,1.81-5.54.15-.19,3.55-2.35,3.93-2.64.2-.15,0-3.56,3.44-2.04.73.32.14,1.65.57,2.08s1.8-.17,2.08.58c.53,1.47-2.96,13.33-3.82,15.58-.12.32-1.81-.33-2.13.47-.27.67.4,2.45.04,3.46-8.47,23.65-9.02,41.22-13.1,64.56-.59,3.4-1,8.46-2.16,11.48-.31.79-3.12-.36-2.25,2.6-4.94-5.28-17.59-18-23.07-7.99-7.07-.75-12.52,2.02-19.69,1.47-.9-.07-9.22-1.4-10.7-1.73-3.05-.68-13.49-5.6-14.89-5.63-2.78-.05-5.64,3.28-6.66,3.63-8.74,3-17.11,2.6-25.36,2.15-2.71-.15-10.78.69-12.42.11-.81-.29-.17-2.04-.45-2.15-.94-.39-2.13.21-3.06-.12-4.64-1.67-9.14-3.29-14.81-2.17-2.65.52-7.97,7.28-9.31,7.83-.64.26-5.08.79-6,.77-7.98-.11-7.74-7.12-17.48-7.14-7.6-.02-5.91,2.89-9.21,4.72-7.75,4.31-21.41,2.91-28.09-3.23-3.29-3.03-6.66-12.08-7.3-12.42-.68-.36-8.93,9.8-10.58,11.11-24.09,19.16-21.92-10.64-24.46-11.1-.62-.11-8.45,5.89-10.58,6.93-5.68,2.8-12,4.92-17.69,6.97-5.16,1.86-6.48,4.84-13.37,3.64-2.57-.45-7.28-10.92-7.57-13.63-.88-8.23,3.85-15.67,3.59-19.62-.29-4.52-8.93,2.07-10.12,4.47-.54,1.09.28,3.3-.17,4.09-3.41,5.93-20.98,22.92-27.23,26.57-2.42,1.42-9.25,4.31-11.89,4.37-1.21.03-10.05-2.35-10.37-2.77-.24-.32-2.16-6.99-2.24-7.61-2.02-15.23,9.67-40.06,22.54-48.18.33-.21,1.4-3.47,2.22-1.4.93,2.35-2.75,6.19-3.62,8.2-.43,1,.38,3.04-.13,3.8-.16.24-1.84-.16-2.01.09-.86,1.24-1.21,7.59-1.54,8.93-.18.74-1.91.83-2.08,1.71-1.21,6.14-2.54,26.19,8.21,25.1,1.37-.14,7.46-4.82,8.98-6.06,1.03-.84,2.79-1.98,2.95-2.14,8.93-8.65,8.37-13.09,2.89-23.71-.17-.33-.86-1.12-1.96-3.32-.69-1.4-3.39-5.6-3.72-7.45s2.37-7.78,3.71-9.34c1.81-2.1,6.33-2.48,8.93-1.94.51.11,6.1,5.67,6.35,6.34,1.55,4.14-2.22,7.88,7.65,6.68,6.29-.77,16.84-9.85,22.87-13.28.42-.24-.1-1.79.62-2.03,1.22-.4,4.39.6,5.37-.05.3-.2-.37-1.85.46-2.14,4.37-1.55,9.51.54,9.77,5.62.35,7.03-2.58,3.6-6.54,5-8.73,3.08-15.23,12.66-16.71,20.67-2.06,11.21,4.3,20.95,16.25,16.09,13.64-5.54,28.87-38.14,40.84-47.11,1.8-1.35,7.88-5.53,9.04-2.2,1.46,4.2-3.24,9.29-4.83,12.74-.44.96.39,3.03-.13,3.8-.16.24-1.83-.16-2.01.09-.45.64.25,2.31-.12,3.06-2.48,5.01-7.35,11.17-9.48,15.69-.31.67.32,2.11-.08,3.06-.12.28-1.77-.4-2.13.5-4.26,10.82-2.29,19.8,9.86,10.47s30.81-45.27,43.82-49.63c2.13-.71,11.35-1.34,13.47.14.23.16-.15,1.51.24,1.9.44.44,1.82-.18,2.08.58s.1,11.53-.12,13.06c-.59,4.22-8.73,14.85-11.75,17.04-.37.27-5.34,1.54-5.62,1.74-.32.23.09,1.79-.15,1.96-.7.48-2.5-.24-3.05.13-4.55,3.01-18.59,15.51-9,19.75,11.5,5.08,21.38-4.83,27.74-13.26,14.22-18.87,11.25-37.18,36.81-44.24,4.19-1.16,7.47.03,10.54-2.48,1.06-.87,10.86-21.59,12.08-24.55,4.91-11.88,7.81-23.13,13.32-34.32.34-.69-.39-2.4.08-3.07.17-.25,1.83.16,2.01-.09.53-.74.91-6.63,4.36-7.93,1.31-.49,8.56-.37,8.88-.06ZM879.59,98.96c-.59,1.29-.72,8.06.57,9.04,4.04,3.07,29.51-21.22,15.07-21.49-7.55-.14-10.87,6.64-13.83,12.13-.2.37-1.72.12-1.81.32ZM939.74,116.82c2.39-6.08,7.99-31.4-4.72-25.54-10.39,4.79-14.34,25.6-13.95,35.68.19,4.98.34,8.36,5.86,5.89,4.22-1.89,11.17-11.88,12.8-16.03ZM1055.25,91c-2.13-2.21-6.98,1.54-8.61,3.09-6.22,5.96-12.73,25.15-13.8,33.66-.55,4.41.22,6.59,5.08,5.86,12.34-1.84,24.37-35.33,17.33-42.61ZM981.98,117.4c-8,26.63,15.75,12.01,19.65-2.6,1.23-4.59,2.77-18.31-2.01-21.09-5.88-3.42-5.31,2.47-6.99,4.65-.38.5-2.57,1.52-3.61,3.27-.39.65.29,2.25-.14,3.03-.14.24-1.83-.15-2,.09-.45.65.25,2.29-.13,3.05-1.57,3.19-3.71,6.07-4.77,9.59Z"/>
      <path class="cls-1" d="M1044.48,266.41c-1-6.63-9.81,5.99-11.42,8.3-8.14,11.71-5.92,15.1-9.71,26.7-.23.71-1.79.2-2.03.62-.69,1.23-.9,3.14-2.76,3.48-6.8,1.24-8.2-.24-7-7.01.23-1.29,1.52-1.12,1.79-2.58.29-1.62,2.33-12.58,1.9-13.08-.57-.66-14.45,5.64-16.15,6.64-1.94,1.14-7.13,6.73-8.86,7.76-1.03.61-2.49-.14-3.42.29-.28.13.37,1.87-.45,2.15-.58.2-11.74.19-12.33,0-.76-.26-.22-1.9-.56-2.04-2.48-1-4.66-1.12-7.11-2.8-2.05-1.41-6.38-7.64-7.73-7.67-.88-.02-10.74,8.59-14.02,10.48-.42.24.1,1.79-.62,2.03-6.98,2.36-12.18-2.55-14.53-8.84l-1.47-10.91c-8.51,7.28-14.74,16.77-23.54,23.57-.4.31-.08,1.71-.29,1.84-.9.59-2.72-.29-3.53.22-.29.19.38,1.86-.45,2.15-.34.12-6.88.12-7.22,0-.73-.25-.16-1.68-.6-2.05-2.62-2.17-2.93-1.69-3.51-6.36-.77-6.21,5.24-16.2-6.26-17.16-3.41-.29-15.63,3.55-18.06,5.73-1.22,1.09-5.08,10.06-6.57,11.49-1.42,1.36-8.1,3.59-9.23,2.46-1.82-1.8,4.68-14.02-7.45-10.17-1.3.41-8.55,5.43-10.61,5.75-3.73.57-8.33-.36-12.19.09-1.44-3.2-4.8-4.15-6.07-7.91-2.23-6.62,5.9-37.3-12.25-17.7-5.89,6.36-5.94,12.35-9.25,17.44-2.33,3.59-12.69,11.66-17.18,14.17-.43.24.09,1.78-.63,2.02-3.39,1.14-13.53-.4-16.85-2.53-3.76-2.42-3.22-5.49-3.94-8.68-1.18-5.23-1.06-8.31.36-14.43,4.02-17.25,22.4-39.63,41.67-36.51,2.04.33,2.4,3.24,3.07,3.69,2.97,1.97,6.16,3.38,9.2,5.24,5.71,3.48,2.42,6.55,9.65-.11,19.88-18.33,27.09-68.66,53.12-79.62.65-.27.59-2.86,2-.96,1.89,2.55,2.66,8.53,2.24,11.66-.81,6.05-7.78,20.96-11.71,25.34-1.82,2.02-5.24,3-7.3,5.48-13.63,16.44-21.48,33.34-27.16,52.23-.28.93-1.93.97-2.09,1.71-.71,3.33.22,19.37,2.9,21.08,1.31.83,14.03-6.07,16.02-7.44,27.36-18.84,38.23-76.52,63.34-107.13.46-.56,2.27-5.34,2.55-5.45,8.45-3.48,8.43,8.77,7.92,14.07-.47,4.85-3.4,11.11-4.37,14.78-.55,2.08-.58,8.68-1.4,10.74-.37.93-2.01-.05-2.29.82-.37,1.13.52,3.74.06,4.92-.31.79-1.6.66-2.06,1.76-4.11,9.91-8.42,19.44-15.48,27.77-.6,2.85.92,2.77,3.29,3.11,2.64.38,16.53-5.03,17.92-.95,2.93,8.57-5.73,15.49-9.49,21.96-2.35,4.04-7.21,13.48-7.41,19.51-.12,3.86,1.05,8.86,5.87,7.27.85-.28,9.91-8.49,10.93-9.69,9.1-10.68,17.47-21.86,26.8-32.58.91-1.04,6.74-10.78,7.69-11.2,1.28-.57,3.39.3,4.24-.23.54-.33-.94-2.18,1.12-2.09,1.16.06,1.74,1.87,2.37,2.15.96.43,2.8-.4,3.78.15.21.12-.15,1.53.24,1.9.73.71,2.59-1.04,2.08,2.71-.08.62-6.93,8.6-7.68,9.88-1.59,2.72-11.1,21.14-11.32,22.42-1.75,10.35,2.96,10.96,10.42,5.91,11.19-7.58,18.88-33.14,33.43-42.82.88-.59,2.72.29,3.53-.22.29-.19-.38-1.86.45-2.15.34-.12,6.88-.12,7.22,0,.75.26.13,1.64.58,2.08.39.39,1.74,0,1.9.24.14.2,1.51,3.86,1.55,4.1.32,1.79-.86,10.83-1.52,11.84-.15.23-1.86-.14-2.01.09-.52.79.33,2.95-.11,3.82-3.35,6.63-12.85,11.35-15.32,14.94-2.81,4.09-3.52,12.15,2.75,13.18,6.33,1.04,22.62-15.71,26.83-20.29,2.47-2.68,16.01-21.01,17.33-21.4,9.95-2.91-.71,8.77,2.75,13.36.38.51,9.53-5.26,11.18-5.97,3.49-1.5,7.47-2.27,10.95-3.66,1.09-.44.98-1.77,1.76-2.05,3.06-1.09,4.79,2.59,4.54,5.4-.91,10.49-13.78,29.14-10.76,37.89,1.71,4.95,9.95.54,12.79-1.15.38-.23.08-1.72.29-1.85.79-.5,2.32.23,3.43-.29.65-.3,1.14-3.96,2.44-1,3.07,6.98-16.06,17.12-23.05,15.08-.14-.04-1.89-2.09-1.89-2.24,0-9.8,1.35-25.72,0-34.68ZM856.07,201.06c5.68-2.14,7.64-9.96,8.02-15.33-3.65,4.05-7.35,9.76-8.02,15.33ZM893.72,230.7c3.77-6.31,7.62-14.8,10.01-21.77,2.59-7.54,8.48-28.32-2.73-9.29-.65,1.11-.07,2.79-.51,3.54-.16.27-1.84-.11-1.97.12-.44.77.24,2.35-.15,3.03-2.07,3.63-5.07,7.37-7.16,11.41-1.2,2.32-1.75,6.04-2.4,7.34-.13.26-1.86-.1-1.97.12-.42.86.23,2.3-.13,3.05-3.18,6.58-4.84,10.09-7.29,16.81-.09.24-4.68,5-1.09,4.17,2.1-.48,13.66-15.65,15.39-18.55ZM991.66,261.43c4.76-10.92-2.83-12.07-7.2-1-5.18,13.14,6.06,3.6,7.2,1ZM891.41,257.57c-3.27,4.51-5.52,15.19,2.99,9.2,7.71-5.43,2.79-17.19-2.99-9.2ZM781.86,261.39c-.61-.79.02-2.1-1.44-3.31-1.12-.92-6.08-2.26-6.87-1.51s-3.38,12.51-3.76,13.07c-.21.31-1.88-.36-2.15.45-.73,2.22-.94,8.88-1.44,11.61-.81,4.45-3.79,7.08-1.83,13.58,3.45,11.38,22.72-10.43,24.01-15.49,2.47-9.65-1.51-11.91-6.53-18.4Z"/>
      <path class="cls-1" d="M886.74,391.62c.27.26.14,6.56-.04,7.49-.77,4-13.93,21.24-14.53,25.16-2.91,18.84,13.36,3.97,18.61-1.97,3.6-4.08,4.84-8.46,9.84-12.8,1.79-1.55,21.52-14.22,22.63-13.49.11.07.07,1.77,1.19,2.08.88.24,17.21,1.72,18.24,1.64,1.58-.12,4.22-3.11,5.4-2.27.13.09-.3,1.56.16,2.04.93.97,2.89-1.36,1.99,4.85-1.46,10.06-10.12,26.74-10.18,32.94-.2,22.28,17.11-6.3,20.03-11.42,4.48-7.88,8.29-20.24,13.81-26.04,4.69-4.92,6.35-1.35,5.54,4.5-1.22,8.76-7.06,24.26-5.82,32.23.57,3.67,1.24,4.55,5.34,3.81,7.22-1.3,15.82-15,15.13-21.94-.07-.68-4.84-8.11-5.06-9.09-.49-2.15-.7-9.7.2-11.67.24-.53,5.42-3.82,5.93-3.92,2.32-.42,12.1,3.53,12.73,4.53,1.04,1.67-.59,14.69,8.83,12.69,12.83-18.47,23.54-40.52,37.71-57.97,2.04-2.52,15.98-17.26,18.46-16.76.14.03,2.29,1.64,2.33,1.78.28.96.19,10.87,0,12.38-.16,1.26-1.48,1.05-1.78,2.59-.26,1.31-1.61,10.25-2.01,10.84-.16.24-1.83-.16-2.01.09-.45.64.25,2.34-.12,3.06-10.17,19.57-34.63,36.96-41.98,58.93-1.49,4.44-5.01,25.19-1.06,27.76,1.18.77,10.66-7.88,15.65-5.85.31.13-1,5.49-1.19,5.77-.15.22-1.57-.13-1.86.28-3.92,5.5-16.73,16.47-20.85,6.21-.23-.57-2.52-10.89-2.65-11.95-.61-4.89,1.56-29.71-8.8-26.16-.6.21-7.24,8.3-8.3,9.56-6.42,7.69-8.84,13.25-18.49,18.77-.81.46-2.36,3.15-3,3.33-6.36,1.75-9.92-7.23-18.15-7.28-.41,0-5.78,1.45-6.05,1.61-.2.12.08,1.65-.29,1.84-4.03,2.02-10.17,4.77-14.58,3.83-.35-.08-6.09-3.37-6.25-3.7-.53-1.14.27-2.72-.15-3.78-4.18-10.45-1.28-8.59-.02-17.12.42-2.82,3.65-21.91,2.95-22.82-2.36-3.1-19.21,21.82-20.27,23.9-.78,1.53-1.53,7.18-2.44,9.07-.46.97-5.81,8.46-6.32,8.62-4.17,1.25-4.72-4.51-5.34-7.47-.12-.59-1.44-.61-1.43-.92.05-2.1,5.22-10.37,4.77-13.51-5.26,5.78-13.74,7.94-19.55,11.69-.57.37-2.59,4.09-2.8,4.24-.8.59-2.72-.29-3.53.22-.29.18.38,1.86-.45,2.15-6.01,2.15-8.28-4.11-9.65-4.44-1.85-.44-15,1.28-16.79,2.41-.44.28-4.27,5.14-6.55,5.63-.88.19-7.85.23-8.53.03-.31-.09-3.99-4.67-4.07-4.98-.3-1.12-.12-3.63-.01-4.93.72-8.63,12.71-32.42,19.22-38.08.46-.4,8.5-5.84,9.08-6.03,1.56-.5,3.9.35,5.5-.04.8-.2,1.23-2.2,1.62-2.2,2.74,0,19.37-.71,20.08,0ZM1054.26,378.02c3.03-4.19,6.88-7.78,8.61-12.92,5.52-16.4-5.07-4.45-8.69,1.16-2.71,4.19-8.69,16.42-9.71,21.21-.12.59-2.07.4-1.44,1.58,2.21,4.19,9.88-9.15,11.23-11.02ZM865.22,415.37c9.38-21.46-4.86-19.19-12.54-3.79-.71,1.43-3.81,8.53-3.88,9.03-3.6,23.05,12.89,2.84,16.42-5.24Z"/>
      <path class="cls-1" d="M383.35,12.97c.24.05,4.39,1.82,4.52,2.03.51.8-.31,2.76.18,3.51.2.3,1.86-.38,2.15.45.12.34.12,6.88,0,7.22-.26.75-1.64.14-2.08.58s.17,1.83-.57,2.08c-1.22.41-3.96-.47-5.62-.01-35.22,9.6-72.93,10.22-107.66,15.85-7.01,1.14-9.81-2.12-15.58,4.17-2.64,2.87-7.36,18.2-8.72,22.07-.39,1.1.37,3.07-.12,3.82-.15.23-1.86-.14-2.01.09-.5.76.35,2.8-.3,4.15-7.45,15.37-19.27,19.38-27.84,30.91-14.98,20.16-20.55,64.82-26.02,90.66-.1.45-3.37,6-3.5,6.89-.54,3.72,4.19,5.29,6.73,3.89,1.01-.55.23-2.02.46-2.22,3.6-3.09,2.29,8.55,1.87,10.26-1.56,6.34-16.96,31.59-23.09,33.86-2.94,1.09-4.74-.56-5.14-3.52-1.76-13.15,4.65-36.66,7.71-50.12,5.77-25.34,12.3-54.41,20.79-77.18.5-1.33-.38-3.79-.02-4.91.27-.82,1.97-.16,2.15-.44.51-.82-.31-2.87.11-3.81.77-1.73,8.32-14.39,9.49-16.05.21-.29,5.16-3.81,5.59-4.42,4.5-6.45,26.7-36.46,28.17-40.83s-.58-11.48,2.91-14.97c.99-.99,5.74-2.04,6.97-2.54,7.25-2.94,9.42-2.68,17.17-4.23,27.1-5.42,57.24-9.88,86.28-13.89,6.04-.83,18.87-4.74,25.02-3.35Z"/>
      <path class="cls-1" d="M739.17,335.5c.25.17-.13,1.84.1,2,.78.52,2.64-.36,3.53.22.21.14-.11,1.53.28,1.85,6.31,5.03,7.23,8.8,3.64,16.8-3.81,8.48-21.05,24.48-28.84,29.22-.96.58-6.07.98-8.25,3.09-5.01,4.83-4.22,10.82,1.39,14.35,4.42,2.78,9.05,1.48,12.43,2.42.89.25,6.41,10.18,6.17,11.93-.17,1.22-1.74,2.28-2.04,3.85-2.99,15.27-18.26,33.78-32.69,40.47-.92.43-2.99-.4-3.82.11-.29.18.38,1.87-.45,2.15-1.11.38-3.9-.48-5.04-.11-.87.29.07,2-.81,2.3-.8.28-15.03.17-16.77-.04-13.65-1.66-22.51-16.42-20.85-29.62,1.09-8.66,18.04-25.94,24.97-30.85.74-.53,2.46.29,3.38-.34,4.79-3.3,9.65-6.91,14.06-10.73-5.96,2.25-12.24,3.43-18.65,2.94-4.79-.37-16.38-4.22-18.41-8.58-3.3-7.09,1.49-19.14,5.35-25.7,11.32-19.25,38.04-24.38,58.35-26.38,2.8-.28,5.98,1.17,8.04.86,1.68-.25,1.13-2.08,2.9-2.3,1.45-.18,11.53-.23,12.02.12ZM735.31,361.47c3.32-5.1,5.77-21.43-3.65-15-7.15,4.88-6.54,16.68-7.8,17.37-.95.52-3.89-1.77-7.06.27-1.66,1.06-10.5,12.68-8.97,14.37.75.83,15.04-6.08,16.96-7.32.9-.59,10.13-9.08,10.53-9.68ZM701.72,361.46c.66-3.74.98-10.74-3.14-12.82-3.51-1.78-5.42,1.29-8.12,2.79-3.46,1.93-11.08,7.03-14.54,10.5-4.31,4.33-16.3,18.54-11.99,24.81.77,1.12,9.04,2.75,10.67,2.7,10.5-.37,17.85-4.95,22.21-14.42.52-1.12-.43-3.65.06-4.79.72-1.69,4.49-6.82,4.84-8.77ZM694.35,424.88c3.98-7.58,18.63-21.67.76-19.33-16.41,2.15-36.38,28.4-33.85,44.65,1.9,12.15,15.97,9.65,24.49,7.32,14.57-3.98,32.07-19.25,32.35-35.6.23-13.41-10.84-1.77-14.66,2.36-.51.55-3.64,6.43-4.63,7.24-.92.76-4.55,2.88-5.55,2.38-.13-.07-1.51-2.44-1.51-2.59-.04-1.6,1.79-4.9,2.6-6.44Z"/>
      <path class="cls-1" d="M712.2,8.33c.33.32-.35,4.77.02,6.05,5.81,19.87,3.2,78.58-1.44,98.9-.3,1.31-1.93,8.76-2.19,9.26-.37.74-1.79.19-2.03.63-7.26,13.48-18.16,26.96-32.88,31.89-16.81,5.63-27.89,3.34-39.19-11.75-4.38-5.84-15.76-29.56-16.57-35.97-1.7-13.55.47-30.34,13.92-36.22-1.79,4.24-2.93,8.47-4.25,12.88-1.93,6.45-5.9,13.59-2.84,21.59,2.2,5.77,4.56.32,6.16-2.91,7.65-15.47,12.42-38.39,35.41-28.08,1.1.49,2.75-.08,3.05.13,1.4.94,5.94,10.65,6.33,13.46.33,2.41-.96,6.02-1.91,8.48-4.47,11.61-13.55,20.72-23.07,28.33-1.11.89-4.54-.32-7.09,4.28-7.86,14.18,18.92,22.07,29.61,17.54.89-.38,11.86-12.63,12.95-14.38,15.89-25.51,25.63-67.66,19.92-97.25-3.1-16.05-4.57-6.6-11.77-.88-2.93,2.33-13.68,9.63-15.5,10.41-1.21.52-3.14-.26-4.14.1-.9.32-.69,2.13-2.34,2.26-11.36.9,13.4-18.56,14.62-19.74,7.14-6.87,8.12-11.73,18.42-16.79.75-.37,2.4.32,3.05-.13.23-.16.93-4.77,3.7-2.1ZM637.88,115.48c1.05,1.36,7.89,2.01,9.67,1.61,5.66-1.28,15.51-22.61,11.04-26.34-4.87-4.06-27.66,15.74-20.72,24.73Z"/>
      <path class="cls-1" d="M527.27,209.29c3.56.84,8,5.87,10.47,7.71.77.57,2.79-.21,3.15.07,1.87,1.48,2.72,5.27,4.29,7.87.66,1.1.48.16,2,3.31,24.7,51.23-28.34,102.98-51.9,144.18-.35.6.39,2.4-.08,3.07-.18.25-1.82-.16-2.01.09-.17.24-.38,3.67-1.8,5.54-.73.96-7.02,5.19-7.78,4.62-.18-.13-.25-2.36-2.28-3.89-13.45-10.14-16.05-17.49-16.74-35.14-.16-3.97.82-20.18,4.89-21.41,8.89-2.69,6.32,10.74,6.88,15.48.51,4.27,1.41,14.34,2.83,17.62,1.73,4,3.41,5.91,7,1.83,2.73-3.1,5.02-12.32,7.32-16.07,11-17.86,29.77-32,38.08-50.98,7.73-17.66,14.05-47.28,1.54-63.91-14.13-18.79-38.26-5.76-56.31-1.96-.8.17-.29,1.83-3.03,2.25-8.43,1.29-10-7.78-3.16-12.26.98-.64,2.76.17,3.43-.29.25-.17-.14-1.84.1-2,.85-.57,3.4.35,4.54-.12,16.97-7.01,29.69-10.06,48.55-5.63Z"/>
      <path class="cls-1" d="M727.54,222.97c-.53,3.63-9.4,20.76-13.38,23.85-3.61,2.8-15.76,6.28-19.95,6.7-18.82,1.9-21.36-18.14-12.25-31.95,17.75-26.89,63.62-32.98,93.36-42.36.53-3.75,1.64-1.54,3.52-2.27.69-.27,10.18-5.64,10.79-3.24.12.47-3.94,8.03-4.37,8.62-5.92,8.13-16.44,16-22.52,25.82-17.12,27.68-18.83,88.05-49.97,99.51-.96.35-.62,1.86-2.36,2.21-16.25,3.24-38.74-14.13-28.67-31.95.41-.73,10.67-11.68,11.48-10.41.15.23.17,5.13.06,5.44-.3.83-1.97.16-2.15.45-.51.82.31,2.84-.11,3.81-2.25,5.29-8.8,9.5-2.83,14.69,29.54,25.71,55.22-54.37,60.51-70.92.92-2.88,3.36-8.65,3.81-10.68,2.44-11.14-9.57-11.22-17.37-10.74-12.5.76-34.38,10.33-43.04,20.48-2.53,2.97-7.53,13.54-7.63,17.22-.2,7.48,2.1,8.46,8.74,6.5,8.47-2.51,22.65-19.52,27.82-26.96,2.51-3.61,2.4-8.06,6.53-9.88-.52,4.99.7,11.25,0,16.06Z"/>
      <path class="cls-1" d="M483.46,18.74c1.41.32,9.7,4.5,12.4,5.62.83.35,2.43-.31,3.06.12.25.17-.14,1.85.09,2,.78.52,2.88-.31,3.81.11,12.97,5.95,21.77,13.38,32.41,22.13,26.84,22.07,57.2,53.54,75.24,82.47,3.64,5.84,13.04,22.62-1.7,13.39-7.26-4.54-11.9-11.8-16.73-17.22-23.23-26.03-47.7-58.7-77.65-77.15-7.93-4.89-41.85-18.18-44.97-22.18-1.39-1.78.11-6.4,1.16-7.19,1.72-1.28,10.3-2.69,12.87-2.11Z"/>
      <path class="cls-1" d="M641.16,251.67c.24.1,3.51,3.41,3.65,3.63,4.27,6.99,3.14,21.23,3.88,30.08,1.34,16.12,4.89,44.35,2.15,59.72-.25,1.39-5.32,8.27-5.6,8.77-1.08,1.99-1.52,5.11-1.78,5.57-.13.23-1.85-.14-1.99.11-.43.77.2,2.31-.24,3.1-.47.85-2.84,2.84-3.48,3.98-.39.71.31,2.4-.14,3.03-.18.25-1.83-.16-2.01.09-.47.67.27,2.43-.08,3.07-12.33,22.78-17.08,33.18-21.14,60.09-.62,4.08.33,18.8-8.41,17.11-3.96-.77-3.94-8.49-4.09-12.03-2.31-53.23,50.24-96,37.1-152.44-.46-1.96-2.66-4.39-3.27-6.95-1.05-4.43-3.59-19.36-2.45-23.08.14-.45,5.77-4.72,7.87-3.86Z"/>
      <path class="cls-1" d="M807.85,387.97c.1.07.24,1.75,1.15,2.11,9.56,3.85,20.68-5.4,26.1,3.51.23.38,1.73.1,1.83.3.26.49.91,9.97.82,11.11-.74,9.8-12.98,23.69-20.27,30.35-4.35,3.98-10,7.09-13.47,12.26-4.17,1.76-4.24-2.06-3.25-5.43,2.18-7.41,20.58-22.35,22.44-29.77,3.42-13.62-3.54-18.3-13.15-7.8-3.55,3.88-5.19,9.15-7.49,13.16-.18.32-1.78-.03-1.9.19-.46.82.21,2.35-.15,3.04-12.51,23.66-19.29,53.21-32.92,76.6-.88,1.52-6.53,9.51-7.42,9.87-6.04,2.44-6.24-6.34-5.69-10.41.47-3.5,6.43-16.4,8.44-20.78,6.25-13.63,30.47-50.55,24.31-64.42-1.83-4.12-4.03,1.76-5.67.19-.56-.54,6.54-12.01,7.67-13.13,2.95-2.93,9.7-5.74,13.39-7.47-1.31-1.23,4.91-3.69,5.2-3.48Z"/>
      <path class="cls-1" d="M522.63,469.44c3.35,3.41.72,5.11-2.81,8.02-6.65,5.48-22.74,12.6-30.89,16.34-.79.36-2.42-.33-3.07.12-.25.17.14,1.85-.09,2.01-.79.53-2.93-.32-3.81.08-1.64.75-3.41,1.44-5.1,2.2-20.6,9.26-44.68,20.51-63.11,32.34-3.06,1.96-3.12,4.77-8.43,3.39-3.54-.92-2.34-12.7-.3-15.75,2.88-4.31,29.68-17.76,35.56-20.3,7.52-3.25,15.62-5.14,23.17-8.21,6-2.44,12.88-5.18,19.89-7.91,11.27-4.39,20.06-9.28,33.78-12.06,1.45-.29,1.41-4.13,5.23-.25Z"/>
      <path class="cls-1" d="M1102.12,399.75c.24.17-.13,1.82.11,1.99.75.52,3.29-.21,3.61.1.3.29.15,7.39-.04,8.36-1.6,8.19-18.57,27.33-8.26,33.85,4.42,2.8,7.66,3.06,11.95.14,1.05,3.49-1.14,7.8-4.21,9.43-1.06.57-9.29,2.57-10.59,2.21-.45-.13-5.8-6.22-6.25-7.01-.53-.93.26-2.95-.23-3.8-1.02-1.76-6.83-1.32-8.79-.75-4,1.15-10.9,8.56-15.73,9.38-7.78,1.32-14.46-.91-14.1-9.78.65-15.78,8.94-31.59,22.48-39.81,2.55-1.55,4.96-1.58,6.7-2.31.28-.12-.36-1.87.45-2.15,1.08-.38,21.97-.5,22.91.15ZM1086.59,427.2c3.59-6.72,4.94-28.39-6.59-21.56-4.34,2.57-17.27,32.56-17.97,36.88-1.62,10.11,8.77,1.61,12.53-1.31,2.17-1.68,11.17-12.42,12.02-14.01Z"/>
      <path class="cls-1" d="M222.92,218.96c1.97-17.54,20.63-34.61,38.17-31.72.84.14,6.5,4.05,6.89,4.17,3.48,1.07,7.7,1.4,11.33,2.58,4.85,1.57,23.56,7.57,25.87,9.57,9.52,8.29-15.34,8.4-19.84,7.75-1.71-.25-1.54-2.04-2.33-2.21-3.05-.69-4.94-.99-7.65-1.69-9.21-2.37-26.99-3.82-34.9,4.27-2.26,2.32-5.94,9.82-9.42,14.09-.68.83-.28,2.68-1.04,3.59-.93,1.12-7.07,2.97-7.07,1.64,0-3.74-.4-8.48,0-12.05Z"/>
      <path class="cls-1" d="M775.73,399.64c1.43,1.83-2.28,17.44-3.13,20.6-1.35,5.06-4.46,14.83-6.48,19.49-.14.32-1.86-.33-2.13.47-.4,1.17-.86,6.36-1.52,7.56-.11.21-1.69-.1-1.87.22-3.49,6.21-5.48,9.83-11.68,13.93-.39.26-.1,1.73-.29,1.84-1.01.58-2.73-.27-3.78.15-.74.29-.45,1.53-2.47,2-8.29,1.95-17.87-9.8-14.01-18.35.59-1.32,10.71-11.22,11.87-11.53,1.97-.54,4.69-.98,6.67-.63,1.83.32,1.58,2.08,2.13,2.12.63.05,9.47-.77,9.91-1,2.76-1.45,5.68-11.87-3.39-12.7-1.74-.16-9.62,1.54-11.43,2.1-.38.12-4.19,4.42-7.11,2.19-.57-.44,2.14-3.94,2.69-4.41,3.49-3.04,10.47-5.81,14.28-8.72,3.43-2.61,6.3-7.65,10.98-10.4,3.11-1.83,8.16-2.56,8.52-2.84.17-.13.43-4.41,2.23-2.11ZM737.95,457.13c8.38.62,3.94-12.59-.57-8.59-1.95,1.73-2.66,8.35.57,8.59Z"/>
      <path class="cls-1" d="M283.36,225.35c.26.04.49,1.65,1.35,1.89,1.68.47,3.39-.19,5.18.36.89.28,1.52,2.73,1.91,3.17s1.52,0,1.96.74c2.28,3.83,2.55,5.24.26,8.84-3.43,5.4-15.33,8.82-20.88,11.3-1.5.67-9.48,5.88-10.05,5.62-.15-.07-2.03-2.49-2.07-2.65-2.16-8.5,5.58-8.99,4.6-12.75-1.23-4.74-4.24-.71-4.53-.67-1.74.27-4.47-.38-5.66-.02-1.03.31.57,2.94-1.86,2.24.37-3.5-2.22-.71-2.63-4.84-1.41-14.01,22.77-14.92,32.4-13.23Z"/>
      <path class="cls-1" d="M372.9,114.64c13.62,17.21,23.31,29.21,34.26,48.25.22.39,1.74.11,1.84.29.55,1.05-.24,2.74.12,3.82.27.79,1.85-.06,1.48,1.57-.14.63-1.05.08-1.45.89-.38.76.42,2.68-.7,3.55-.68.52-6.31.55-7.25.16-.26-.11-1.91-4.77-2.25-5.16-8.16-9.5-26.81-31.08-31.91-41.65-.71-1.48-2.82-7.25-2.45-8.69l6.59-6.39c1-.5,1.1,2.56,1.73,3.36Z"/>
      <path class="cls-1" d="M347.71,383.72c.23.12,2.68,3.19,3.06,3.79,5.05,7.91,3.01,34.75.52,43.73-.82,2.96-8.19,18.33-9.78,18.81-6.56,1.93-8.59-3.81-7.64-9.19.12-.66,3.5-6.87,3.72-8,1.81-9.21,2.77-21.18,3.61-30.68.21-2.4.09-17.94.74-18.61.2-.21,5.27-.12,5.76.14Z"/>
      <path class="cls-1" d="M416.96,442.23c.24.08,3.02,3.72,3.07,3.97.63,3.05-5.5,14.2-7.45,17.53-.12.21-2.25.89-3.4,2.92-.38.66.29,2.2-.16,3.01-.12.21-1.68-.09-1.86.23-.79,1.4-1.02,3.57-1.84,5.18-3.66,7.16-9.35,25.39-13.52,29.16-.51.46-.06,1.88-.19,2-1.06,1.02-1.94-1.77-2.72-2.2-.61-.34-2.87.28-3.12.02-.24-.24.34-2.33-.02-3.13s-1.59-.16-1.54-2.32c.26-10.69,17.71-45.67,25.21-54.17,2.23-2.53,3.94-3.36,7.55-2.2Z"/>
      <path class="cls-1" d="M278.42,385.77c.28.26.18,7.21.05,7.62-.14.46-6.93,5.72-7.55,6.05-5.43,2.87-13.44,3.78-19.06,6.16-5.32,2.26-13.62,8.05-18.52,10.11-.87.36-2.88-.25-4.43.16-.36.1-3.49,4.13-5.82-.32-3.22-6.17,14.99-17.42,19.8-19.67,10.14-4.73,19.33-5.68,29.77-8.23.62-.15,3.79-3.76,5.76-1.89Z"/>
      <path class="cls-1" d="M385.68,56.66c.22.13-.13,1.51.25,1.89.49.48,3.38-.62,1.9,3.35-.35.95-1.64.85-2.08,1.73-2.87,5.72-7.84,10.62-11.83,17.19-3.35,5.51-5.94,11.73-9.21,17.07-1.44,2.35.05.89-2.36,3.64-.69.78-.96,2.86-1.95,3.18-.53.17-5.13.19-5.31,0-1.82-1.84-.17-12.3.7-15,2.11-6.53,17.6-27.42,22.75-30.87.87-.59,2.71.3,3.53-.22.23-.14-.21-4.22,3.61-1.96Z"/>
      <path class="cls-1" d="M431.77,233.19c-1.3,1.25-5.82-1.32-7.07-2.41-9.84-8.52-12.87-36.11-8.12-47.87,7.78-6.39,6.91,14.72,8.07,19.8.98,4.28,7.12,19.15,7.12,20.26,0,1.51.37,9.87,0,10.22Z"/>
      <path class="cls-1" d="M1099.72,14.67c-.33,1.12-3.14,5.99-3.33,6.63-1.82,5.92-2.3,17.46-8.34,21.08-7.89,4.72-8.36,1.6-7.8-6.7.6-8.97,6.59-16.39,8.17-25.09,3.71.47,1.29-2.29,2.1-3.92,2.28-4.55,4.36-7.69,9.83-6.37,4.13,1,.33,11.1-.62,14.37Z"/>
      <path class="cls-1" d="M955.83,376.59c.13.03.2.94.81,1.13,1.25.39,4.85-.33,5.31.03,2.07,1.62-9.14,7.49-10.04,7.84-1.58.6-4.42-.24-5.24.28-.29.19.38,1.85-.46,2.15-5.92,2.13-17.66-2.37-24.02-2.19-.1-3.77-3.95-.88-4.53-4.92-.69-4.75,3.02-2.53,4.08-3.26.24-.16-.15-1.82.1-2,2.64-1.87,29.44-.06,33.98.94Z"/>
      <path class="cls-1" d="M266.66,411.4c4,2.81-3.71,15.58-6.35,18.17s-16.76,12.16-19.79,10.15c-1.38-.92-3.23-9.61-2.15-11.47,4.73-2.44,7.42-6.45,12.07-9.47,2.94-1.91,5.77-2.16,8.04-3.29,1.58-.79,5.27-6.11,8.17-4.08Z"/>
      <path class="cls-1" d="M865.56,40.46c.15.18-.33,1.47.15,2.04.35.42,1.79-.22,2.09.56.96,2.51.56,14.45-1.95,15.69-.61.3-2.54-.42-3.42-.03-.8.35-1.15,2.62-3.68,2.19-.23-.04-2.2-2.86-4.14-2.23,2.14-4.49,1.19-10.82,4.7-14.61,2.73-2.94,4.57-1.25,4.78-1.42.12-.1-.16-4.21,1.46-2.2Z"/>
      <path class="cls-1" d="M967.63,209.3c.22.07,3.78,2.23,3.87,2.45,1.32,3.44.3,11.62-4.76,11.83-9.2.39-5.36-16.34.9-14.28Z"/>
      <path class="cls-1" d="M390.11,40.51c1.22.59,1.95,7.49,1.02,9.3-.98,1.91-6.98,2.49-7.59.44-1.06-3.54,3.37-11.29,6.58-9.73Z"/>
    </g>
  </g>
</svg>